<mxfile host="Electron" agent="Mozilla/5.0 (Windows NT 10.0; Win64; x64) AppleWebKit/537.36 (KHTML, like Gecko) draw.io/26.0.16 Chrome/132.0.6834.196 Electron/34.2.0 Safari/537.36" version="26.0.16">
  <diagram name="Página-1" id="MQsmbUR3DhokujSfEfEX">
    <mxGraphModel dx="1434" dy="836" grid="1" gridSize="10" guides="1" tooltips="1" connect="1" arrows="1" fold="1" page="1" pageScale="1" pageWidth="827" pageHeight="1169" math="0" shadow="0">
      <root>
        <mxCell id="0" />
        <mxCell id="1" parent="0" />
        <mxCell id="omwboQhqRFHcb1x4vnCJ-1" value="Atuenticação (PassportJS)" style="image;aspect=fixed;html=1;points=[];align=center;fontSize=12;image=img/lib/azure2/security/Multifactor_Authentication.svg;" vertex="1" parent="1">
          <mxGeometry x="95.19" y="80" width="89.61" height="110" as="geometry" />
        </mxCell>
        <mxCell id="omwboQhqRFHcb1x4vnCJ-12" style="edgeStyle=orthogonalEdgeStyle;rounded=0;orthogonalLoop=1;jettySize=auto;html=1;" edge="1" parent="1" source="omwboQhqRFHcb1x4vnCJ-2" target="omwboQhqRFHcb1x4vnCJ-4">
          <mxGeometry relative="1" as="geometry">
            <Array as="points">
              <mxPoint x="340" y="350" />
              <mxPoint x="340" y="385" />
            </Array>
          </mxGeometry>
        </mxCell>
        <mxCell id="omwboQhqRFHcb1x4vnCJ-19" style="edgeStyle=orthogonalEdgeStyle;rounded=0;orthogonalLoop=1;jettySize=auto;html=1;exitX=0.005;exitY=0.63;exitDx=0;exitDy=0;exitPerimeter=0;entryX=0;entryY=0.727;entryDx=0;entryDy=0;entryPerimeter=0;" edge="1" parent="1" source="omwboQhqRFHcb1x4vnCJ-2" target="omwboQhqRFHcb1x4vnCJ-5">
          <mxGeometry relative="1" as="geometry">
            <Array as="points">
              <mxPoint x="40" y="349" />
              <mxPoint x="40" y="530" />
            </Array>
          </mxGeometry>
        </mxCell>
        <mxCell id="omwboQhqRFHcb1x4vnCJ-2" value="Aplicação Monolítica (Next.js)" style="aspect=fixed;sketch=0;html=1;dashed=0;whitespace=wrap;verticalLabelPosition=bottom;verticalAlign=top;fillColor=#2875E2;strokeColor=#ffffff;points=[[0.005,0.63,0],[0.1,0.2,0],[0.9,0.2,0],[0.5,0,0],[0.995,0.63,0],[0.72,0.99,0],[0.5,1,0],[0.28,0.99,0]];shape=mxgraph.kubernetes.icon2;prIcon=api" vertex="1" parent="1">
          <mxGeometry x="80" y="280" width="114.58" height="110" as="geometry" />
        </mxCell>
        <mxCell id="omwboQhqRFHcb1x4vnCJ-3" value="Banco de Dados&lt;div&gt;(PostgreSQL/MySQL)&lt;/div&gt;" style="image;aspect=fixed;html=1;points=[];align=center;fontSize=12;image=img/lib/azure2/databases/SQL_Database.svg;" vertex="1" parent="1">
          <mxGeometry x="480" y="130" width="90" height="120" as="geometry" />
        </mxCell>
        <mxCell id="omwboQhqRFHcb1x4vnCJ-4" value="Armazenamento (AWS S3)&lt;div&gt;Caso Necessároio&lt;/div&gt;" style="sketch=0;outlineConnect=0;fontColor=#232F3E;gradientColor=none;strokeColor=#ffffff;fillColor=#232F3E;dashed=0;verticalLabelPosition=middle;verticalAlign=bottom;align=center;html=1;whiteSpace=wrap;fontSize=10;fontStyle=1;spacing=3;shape=mxgraph.aws4.productIcon;prIcon=mxgraph.aws4.storage_gateway;" vertex="1" parent="1">
          <mxGeometry x="480" y="330" width="100" height="140" as="geometry" />
        </mxCell>
        <mxCell id="omwboQhqRFHcb1x4vnCJ-5" value="Relatórios (Chart.js)" style="shadow=0;dashed=0;html=1;strokeColor=none;fillColor=#4495D1;labelPosition=center;verticalLabelPosition=bottom;verticalAlign=top;align=center;outlineConnect=0;shape=mxgraph.veeam.2d.report;" vertex="1" parent="1">
          <mxGeometry x="100" y="450" width="80" height="110" as="geometry" />
        </mxCell>
        <mxCell id="omwboQhqRFHcb1x4vnCJ-11" style="edgeStyle=orthogonalEdgeStyle;rounded=0;orthogonalLoop=1;jettySize=auto;html=1;entryX=0;entryY=0.542;entryDx=0;entryDy=0;entryPerimeter=0;" edge="1" parent="1" source="omwboQhqRFHcb1x4vnCJ-2" target="omwboQhqRFHcb1x4vnCJ-3">
          <mxGeometry relative="1" as="geometry">
            <Array as="points">
              <mxPoint x="340" y="350" />
              <mxPoint x="340" y="195" />
            </Array>
          </mxGeometry>
        </mxCell>
        <mxCell id="omwboQhqRFHcb1x4vnCJ-18" style="edgeStyle=orthogonalEdgeStyle;rounded=0;orthogonalLoop=1;jettySize=auto;html=1;entryX=-0.002;entryY=0.455;entryDx=0;entryDy=0;entryPerimeter=0;exitX=0.005;exitY=0.63;exitDx=0;exitDy=0;exitPerimeter=0;" edge="1" parent="1" source="omwboQhqRFHcb1x4vnCJ-2" target="omwboQhqRFHcb1x4vnCJ-1">
          <mxGeometry relative="1" as="geometry">
            <Array as="points">
              <mxPoint x="40" y="349" />
              <mxPoint x="40" y="130" />
            </Array>
          </mxGeometry>
        </mxCell>
      </root>
    </mxGraphModel>
  </diagram>
</mxfile>
